# xmcd
#
# Track frame offsets: 
#        150
#        20594
#        35749
#        55008
#        73003
#        92839
#        103077
#        122791
#        140530
#        154584
#        157051
#        173692
#        185046
#        202426
#        217503
#        234869
#
# Disc length: 3360 seconds
#
# Revision: 2
# Processed by: cddbd v1.5.2PL0 Copyright (c) Steve Scherf et al.
# Submitted via: ExactAudioCopy v1.3
#
DISCID=e30d1e10
DTITLE=Bad Penny - Bob Bales - The Dullahan
DYEAR=2017
DGENRE=Blues
TTITLE0=Wexford Fisherman
TTITLE1=Bonnie Light Horseman
TTITLE2=Sail Away (Folk Version)
TTITLE3=On A Night Like This
TTITLE4=The Dullahan
TTITLE5=Storm Over Rostock
TTITLE6=Follow Me Up To Carlow
TTITLE7=Philby (Folk Version)
TTITLE8=Whiskey In The Jar
TTITLE9=Whiskey In The Jar (Part Two)
TTITLE10=I Wish That I Was In England
TTITLE11=Captain Kennedy (Folk Version)
TTITLE12=Ride Through The Night (Folk Version)
TTITLE13=Irish Rover
TTITLE14=The Baltic Song
TTITLE15=Here We Go Again
EXTD=
EXTT0=
EXTT1=
EXTT2=
EXTT3=
EXTT4=
EXTT5=
EXTT6=
EXTT7=
EXTT8=
EXTT9=
EXTT10=
EXTT11=
EXTT12=
EXTT13=
EXTT14=
EXTT15=
PLAYORDER=
